<svg xmlns="http://www.w3.org/2000/svg" viewBox="0 0 60 60"><defs><style>.cls-1{fill:#e9edf5;}.cls-2{fill:#bec3d2;}.cls-3{fill:#65b1fc;}.cls-4{fill:#87c7ff;}.cls-5{fill:#a3d4ff;}.cls-6{fill:#ffe45c;}.cls-7{fill:#fff;}.cls-8{fill:#ffc247;}.cls-9{fill:#bfe1ff;}.cls-10{fill:#4a98f7;}.cls-11{fill:#2b1505;}</style></defs><title>17-Contact us</title><g id="_17-Contact_us" data-name="17-Contact us"><polygon class="cls-1" points="43 55 44 58 43 59 17 59 16 58 17 55 20 55 40 55 43 55"/><path class="cls-2" d="M40,55H20c3.5-3.5,3-6,3-6H37S36.5,51.5,40,55Z"/><circle class="cls-2" cx="30" cy="43" r="2"/><path class="cls-1" d="M59,37v8a4,4,0,0,1-4,4H5a4,4,0,0,1-4-4V37ZM32,43a2,2,0,1,0-2,2A2.006,2.006,0,0,0,32,43Z"/><path class="cls-3" d="M59,7V37H1V7A4,4,0,0,1,5,3H55A4,4,0,0,1,59,7Z"/><path class="cls-4" d="M18.039,3H5A4,4,0,0,0,1,7V18.686A31.1,31.1,0,0,1,18.039,3Z"/><path class="cls-5" d="M2.092,37A37.508,37.508,0,0,1,30.911,3H18.039A31.1,31.1,0,0,0,1,18.686V37Z"/><path class="cls-6" d="M39,1A16,16,0,1,1,26.18,26.54,20.715,20.715,0,0,0,22,31a12.222,12.222,0,0,1,2.4-7.48A15.979,15.979,0,0,1,39,1Z"/><circle class="cls-7" cx="35" cy="19" r="2"/><circle class="cls-7" cx="43" cy="19" r="2"/><path class="cls-8" d="M55,17A15.984,15.984,0,0,0,32.463,2.4,15.991,15.991,0,0,1,42.537,32.6,15.992,15.992,0,0,0,55,17Z"/><circle class="cls-3" cx="6" cy="8" r="1"/><circle class="cls-9" cx="6" cy="12" r="1"/><circle class="cls-9" cx="6" cy="16" r="1"/><circle class="cls-9" cx="6" cy="20" r="1"/><circle class="cls-10" cx="6" cy="24" r="1"/><circle class="cls-10" cx="6" cy="28" r="1"/><circle class="cls-10" cx="6" cy="32" r="1"/><circle class="cls-10" cx="9" cy="30" r="1"/><circle class="cls-10" cx="9" cy="26" r="1"/><circle class="cls-10" cx="9" cy="22" r="1"/><circle class="cls-10" cx="9" cy="18" r="1"/><circle class="cls-9" cx="9" cy="14" r="1"/><circle class="cls-9" cx="9" cy="10" r="1"/><circle class="cls-9" cx="12" cy="8" r="1"/><circle class="cls-9" cx="12" cy="12" r="1"/><circle class="cls-10" cx="12" cy="16" r="1"/><circle class="cls-10" cx="12" cy="20" r="1"/><circle class="cls-10" cx="12" cy="24" r="1"/><circle class="cls-10" cx="12" cy="28" r="1"/><circle class="cls-10" cx="12" cy="32" r="1"/><circle class="cls-10" cx="15" cy="30" r="1"/><circle class="cls-10" cx="15" cy="26" r="1"/><circle class="cls-10" cx="15" cy="22" r="1"/><circle class="cls-10" cx="15" cy="18" r="1"/><circle class="cls-10" cx="15" cy="14" r="1"/><circle class="cls-9" cx="15" cy="10" r="1"/><circle class="cls-9" cx="18" cy="8" r="1"/><circle class="cls-10" cx="18" cy="12" r="1"/><circle class="cls-10" cx="18" cy="16" r="1"/><circle class="cls-10" cx="18" cy="20" r="1"/><circle class="cls-10" cx="18" cy="24" r="1"/><circle class="cls-10" cx="18" cy="28" r="1"/><circle class="cls-10" cx="18" cy="32" r="1"/><path class="cls-11" d="M55,2H47l-.012,0A16.937,16.937,0,0,0,31.012,2L31,2H5A5.006,5.006,0,0,0,0,7V45a5.006,5.006,0,0,0,5,5H21.948a8.437,8.437,0,0,1-2.37,4H17a1,1,0,0,0-.948.684l-1,3a1,1,0,0,0,.241,1.023l1,1A1,1,0,0,0,17,60H43a1,1,0,0,0,.707-.293l1-1a1,1,0,0,0,.241-1.023l-1-3A1,1,0,0,0,43,54H40.422a8.464,8.464,0,0,1-2.372-4H55a5.006,5.006,0,0,0,5-5V7A5.006,5.006,0,0,0,55,2ZM54,17a14.986,14.986,0,0,1-27.021,8.943,1,1,0,0,0-1.4-.2,17.467,17.467,0,0,0-2.13,1.91A10.818,10.818,0,0,1,25.2,24.117a1,1,0,0,0,.113-1.007A14.844,14.844,0,0,1,24,17a15,15,0,0,1,30,0ZM5,4H28.068a16.942,16.942,0,0,0-4.811,19.4A13.248,13.248,0,0,0,21,31a1,1,0,0,0,1.831.556,20.859,20.859,0,0,1,3.19-3.6A16.829,16.829,0,0,0,39,34,16.987,16.987,0,0,0,49.932,4H55a3,3,0,0,1,3,3V36H2V7A3,3,0,0,1,5,4ZM42.855,57.73l-.269.27H17.414l-.269-.27L17.721,56H42.279ZM37.813,54H22.187a8.652,8.652,0,0,0,1.795-4H36.018A8.652,8.652,0,0,0,37.813,54ZM55,48H5a3,3,0,0,1-3-3V38H58v7A3,3,0,0,1,55,48Z"/><path class="cls-11" d="M30,40a3,3,0,1,0,3,3A3,3,0,0,0,30,40Zm0,4a1,1,0,1,1,1-1A1,1,0,0,1,30,44Z"/><path class="cls-11" d="M32,19a3,3,0,0,0,6,0c0-6.92-4.95-7-5-7a.994.994,0,0,0-.993.987A1.006,1.006,0,0,0,32.987,14a2.945,2.945,0,0,1,2.519,2.051A2.958,2.958,0,0,0,32,19Zm3,1a1,1,0,1,1,1-1A1,1,0,0,1,35,20Z"/><path class="cls-11" d="M40,19a3,3,0,0,0,6,0c0-6.92-4.95-7-5-7a.994.994,0,0,0-.993.987A1.006,1.006,0,0,0,40.987,14a2.945,2.945,0,0,1,2.519,2.051A2.958,2.958,0,0,0,40,19Zm3,1a1,1,0,1,1,1-1A1,1,0,0,1,43,20Z"/></g></svg>